PathFileType	4	(X/Y/Z)	Walk10.trc
DataRate	CameraRate	NumFrames	NumMarkers	Units	OrigDataRate	OrigDataStartFrame	OrigNumFrames
200.000000	200.000000	5	61	mm	200.000000	356	495
Frame#	Times		LFHD		RFHD		CLAV		LASI		RASI		RACR1		RUA1		RFA1		RWRR		RCAR		LACR1		LUA1		LWRU		RTH3		LTH1		LTH3		LTH2		LTH4		LTB1		LTB2		LTB4		LLFC		RTB1		LCAR		LTB3		LFA1		STRN		RTB4		RWRU		RTB3		RTH2		LBHD		RMT5		RMFC		RLFC		RToe		RMT1		RTH4		RMMAL		RTB2		RTH1		LElbow		RElbow		LWRR		LMFC		T10		LPSI		RLMAL		RBHD		RBack		RCAL		RPSI		LToe		RElbowM		C7		LMMAL		LElbowM		LLMAL		LCAL		LMT5		LMT1
			X1	Y1	Z1	X2	Y2	Z2	X3	Y3	Z3	X4	Y4	Z4	X5	Y5	Z5	X6	Y6	Z6	X7	Y7	Z7	X8	Y8	Z8	X9	Y9	Z9	X10	Y10	Z10	X11	Y11	Z11	X12	Y12	Z12	X13	Y13	Z13	X14	Y14	Z14	X15	Y15	Z15	X16	Y16	Z16	X17	Y17	Z17	X18	Y18	Z18	X19	Y19	Z19	X20	Y20	Z20	X21	Y21	Z21	X22	Y22	Z22	X23	Y23	Z23	X24	Y24	Z24	X25	Y25	Z25	X26	Y26	Z26	X27	Y27	Z27	X28	Y28	Z28	X29	Y29	Z29	X30	Y30	Z30	X31	Y31	Z31	X32	Y32	Z32	X33	Y33	Z33	X34	Y34	Z34	X35	Y35	Z35	X36	Y36	Z36	X37	Y37	Z37	X38	Y38	Z38	X39	Y39	Z39	X40	Y40	Z40	X41	Y41	Z41	X42	Y42	Z42	X43	Y43	Z43	X44	Y44	Z44	X45	Y45	Z45	X46	Y46	Z46	X47	Y47	Z47	X48	Y48	Z48	X49	Y49	Z49	X50	Y50	Z50	X51	Y51	Z51	X52	Y52	Z52	X53	Y53	Z53	X54	Y54	Z54	X55	Y55	Z55	X56	Y56	Z56	X57	Y57	Z57	X58	Y58	Z58	X59	Y59	Z59	X60	Y60	Z60	X61	Y61	Z61

356	1.78	518.16	1608.6	35.682	516.39	1608.4	135.18	494.11	1328.1	78.965	471.52	920.6	-42.007	493.3	934.39	205.21	435.39	1352.8	251.74	436.49	1181.9	300.67	474.75	896.26	359.29	541	786.99	329.39	532.26	723.2	382.43	409.11	1373.1	-70.22	384.76	1198.3	-125.26	454.95	799.07	-143.99	446.27	594.66	249.47	451.21	749.03	-100.47	505.5	587.83	-75.459	531.74	689.82	-74.411	477.73	667.59	-88.878	515.67	354.63	8.1871	437.65	305.03	-43.589	451.27	296.63	15.193	534	457.3	-59.482	458.3	336	187.14	436.69	734.2	-179.7	392.54	236.61	23.228	389.93	905.06	-160.94	519.23	1194.1	78.605	441.02	250.89	178.54	482.45	776.3	363.46	422.44	167.53	166.81	500.34	684.96	244.03	381.49	1532.8	10.662	455.12	23.678	194.23	412.53	439.25	94.707	448.15	446.11	218.95	543.66	27.659	137.37	489.42	34.983	106.77	446.28	676.47	267.34	368.55	85.742	99.855	397.03	255.79	221.15	447.25	761.82	288.58	360.11	1041.6	-138.8	422.17	1017	334.78	386.49	787.99	-144.99	531.95	451.33	78.917	310.88	1214.3	92.228	303.06	969.74	44.483	353.78	65.2	179.41	381.12	1538.8	153.55	312.61	1299.2	163.32	301.68	42.058	136.28	314.14	971.17	144.17	406.41	38.105	29.989	396.57	1011.3	258.32	382.59	1427.4	86.341	302.38	192.93	62.425	351.36	1026.1	-65.542	279.69	184.65	-17.833	219.64	197.63	26.102	334.53	82.981	-19.853	364.78	73.933	55.254
357	1.785	525.12	1609	35.645	523.28	1608.9	135.14	500.82	1328.8	79.2	478.55	921.43	-41.78	500.05	934.47	205.38	442.02	1353.7	251.89	443.68	1182.9	301	484.55	897.64	359.3	552.43	789.4	329.07	544.57	725.26	381.86	415.65	1373.6	-70.057	390.81	1198.8	-125.01	453.79	797.87	-145.07	450.14	594.68	249.29	459.18	750.24	-100.72	515.23	589.64	-75.522	540.38	691.97	-74.72	486.61	669.05	-89.033	529.39	356.19	8.635	452.59	304.42	-42.914	466.59	296.56	15.891	545.33	459.16	-59.188	458.94	336.08	187.05	433.16	733.19	-180.18	409.46	235.06	24.17	391.17	905.6	-160.79	526.08	1194.9	79.025	441.51	251.01	178.45	494.03	777.83	363.14	422.77	167.69	166.76	505.12	684.35	242.94	388.31	1533.4	10.629	455.17	23.694	194.14	412.99	439.42	94.647	449.38	446.08	218.95	543.87	27.563	137.43	489.55	34.958	106.77	451.34	676.39	266.93	368.87	86.004	99.707	397.5	256.02	221.05	453.61	761.86	288.08	364.87	1042.4	-138.14	430.3	1017.8	335.03	385.06	788.53	-144.87	543.43	453.64	78.941	317.77	1214.7	92.603	310.04	970.4	44.567	353.81	65.528	179.19	387.88	1539.6	153.49	319.37	1299.7	163.57	301.86	42.523	136	321	971.65	144.3	429.31	37.352	30.204	404.8	1012.2	258.54	389.24	1427.9	86.403	320.66	188.84	63.591	356.21	1027.1	-65.01	297.87	179.95	-16.62	237.54	191.03	27.728	355.74	80.184	-19.201	386.77	71.913	55.741
358	1.79	532.06	1609.3	35.578	530.16	1609.3	135.07	507.56	1329.4	79.443	485.58	922.16	-41.539	506.76	934.47	205.57	448.64	1354.5	252.05	450.84	1183.8	301.34	494.34	898.93	359.33	563.83	791.78	328.75	556.89	727.3	381.3	422.24	1374	-69.9	396.88	1199.2	-124.77	452.65	796.77	-146.18	453.95	594.66	249.09	467.13	751.36	-100.99	524.86	591.35	-75.597	548.96	693.97	-75.029	495.42	670.43	-89.206	543.02	357.68	9.0437	467.53	303.72	-42.296	481.89	296.41	16.535	556.49	460.91	-58.912	459.61	336.17	186.97	429.66	732.33	-180.65	426.48	233.41	25.039	392.45	906.17	-160.67	532.95	1195.6	79.482	442.02	251.14	178.36	505.62	779.31	362.86	423.11	167.87	166.7	509.83	683.7	241.88	395.13	1533.9	10.579	455.21	23.712	194.04	413.48	439.62	94.597	450.63	446.07	218.95	544.1	27.464	137.5	489.69	34.933	106.76	456.33	676.26	266.5	369.22	86.29	99.543	397.99	256.27	220.94	459.9	761.82	287.6	369.6	1043.2	-137.51	438.4	1018.5	335.29	383.72	789.14	-144.75	554.7	455.83	78.931	324.67	1215	92.957	317.02	970.97	44.626	353.84	65.878	178.94	394.64	1540.2	153.42	326.14	1300.1	163.82	302.04	43.008	135.68	327.83	972.04	144.4	452.35	36.628	30.315	413.01	1013.1	258.79	395.93	1428.3	86.465	339.14	184.62	64.676	361.05	1028	-64.52	316.27	175.11	-15.482	255.74	184.25	29.275	377.14	77.342	-18.632	408.92	69.886	56.138
359	1.795	538.99	1609.5	35.482	537.03	1609.6	134.97	514.32	1329.8	79.691	492.63	922.79	-41.285	513.43	934.41	205.78	455.28	1355.2	252.21	457.98	1184.5	301.69	504.11	900.14	359.37	575.22	794.11	328.43	569.21	729.31	380.75	428.87	1374.2	-69.749	402.97	1199.4	-124.55	451.54	795.77	-147.32	457.72	594.61	248.86	475.05	752.38	-101.26	534.36	592.94	-75.679	557.47	695.84	-75.336	504.14	671.7	-89.394	556.53	359.1	9.4084	482.47	302.92	-41.739	497.18	296.19	17.119	567.46	462.54	-58.652	460.3	336.27	186.91	426.22	731.63	-181.12	443.59	231.68	25.827	393.78	906.74	-160.58	539.82	1196.1	79.968	442.55	251.29	178.28	517.24	780.75	362.61	423.47	168.06	166.65	514.47	683.01	240.86	401.96	1534.2	10.512	455.26	23.731	193.93	414.02	439.86	94.557	451.89	446.05	218.95	544.33	27.361	137.58	489.85	34.908	106.76	461.25	676.1	266.07	369.59	86.6	99.36	398.47	256.54	220.83	466.08	761.72	287.13	374.32	1043.8	-136.93	446.47	1019	335.58	382.48	789.83	-144.63	565.75	457.89	78.892	331.55	1215.2	93.289	323.99	971.45	44.66	353.88	66.248	178.68	401.41	1540.7	153.33	332.92	1300.4	164.04	302.22	43.511	135.33	334.63	972.34	144.48	475.5	35.953	30.328	421.18	1013.8	259.05	402.65	1428.6	86.526	357.83	180.28	65.674	365.89	1028.8	-64.065	334.89	170.15	-14.426	274.22	177.32	30.728	398.71	74.474	-18.146	431.23	67.878	56.446
360	1.8	545.91	1609.6	35.361	543.89	1609.9	134.85	521.12	1330.2	79.944	499.69	923.31	-41.017	520.06	934.27	206.01	461.92	1355.7	252.38	465.09	1185.2	302.05	513.88	901.28	359.43	586.58	796.39	328.13	581.53	731.29	380.22	435.56	1374.3	-69.607	409.06	1199.6	-124.34	450.46	794.88	-148.47	461.42	594.54	248.62	482.95	753.29	-101.53	543.75	594.41	-75.761	565.91	697.55	-75.639	512.78	672.86	-89.589	569.93	360.43	9.7253	497.41	302.05	-41.246	512.46	295.89	17.637	578.25	464.04	-58.41	461.01	336.38	186.86	422.86	731.08	-181.57	460.8	229.88	26.527	395.17	907.33	-160.51	546.71	1196.6	80.477	443.1	251.44	178.21	528.86	782.14	362.38	423.84	168.27	166.59	519.05	682.29	239.9	408.8	1534.4	10.433	455.29	23.753	193.82	414.62	440.16	94.525	453.18	446.04	218.96	544.58	27.254	137.67	490.01	34.883	106.75	466.07	675.92	265.63	369.98	86.934	99.157	398.96	256.83	220.71	472.15	761.56	286.68	379.02	1044.4	-136.39	454.51	1019.4	335.88	381.35	790.57	-144.52	576.58	459.81	78.829	338.44	1215.4	93.599	330.95	971.83	44.667	353.92	66.64	178.4	408.2	1541.1	153.22	339.72	1300.6	164.25	302.41	44.033	134.93	341.41	972.55	144.53	498.76	35.349	30.252	429.33	1014.3	259.34	409.41	1428.8	86.586	376.72	175.85	66.58	370.74	1029.4	-63.64	353.74	165.09	-13.453	293.01	170.28	32.077	420.47	71.605	-17.743	453.69	65.915	56.668
